<?xml version="1.0" encoding="UTF-8" standalone="no"?>
<!-- Created with Inkscape (http://www.inkscape.org/) -->

<svg
   width="210mm"
   height="297mm"
   viewBox="0 0 210 297"
   version="1.1"
   id="svg5"
   xml:space="preserve"
   inkscape:version="1.2.2 (732a01da63, 2022-12-09)"
   sodipodi:docname="projekt_koncowy_logo.svg"
   xmlns:inkscape="http://www.inkscape.org/namespaces/inkscape"
   xmlns:sodipodi="http://sodipodi.sourceforge.net/DTD/sodipodi-0.dtd"
   xmlns="http://www.w3.org/2000/svg"
   xmlns:svg="http://www.w3.org/2000/svg"><sodipodi:namedview
     id="namedview7"
     pagecolor="#505050"
     bordercolor="#ffffff"
     borderopacity="1"
     inkscape:showpageshadow="0"
     inkscape:pageopacity="0"
     inkscape:pagecheckerboard="1"
     inkscape:deskcolor="#505050"
     inkscape:document-units="mm"
     showgrid="false"
     inkscape:zoom="0.36925856"
     inkscape:cx="552.45842"
     inkscape:cy="292.47799"
     inkscape:window-width="1920"
     inkscape:window-height="1009"
     inkscape:window-x="-8"
     inkscape:window-y="-8"
     inkscape:window-maximized="1"
     inkscape:current-layer="svg5" /><defs
     id="defs2"><inkscape:path-effect
       effect="bend_path"
       id="path-effect465"
       is_visible="true"
       lpeversion="1"
       bendpath="m 265.34846,514.78183 c 98.93519,210.56458 338.01569,123.2327 377.64708,-29.03951"
       prop_scale="1"
       scale_y_rel="false"
       vertical="false"
       hide_knot="false"
       bendpath-nodetypes="cc" /><rect
       x="260.70095"
       y="472.0801"
       width="511.75782"
       height="64.680104"
       id="rect4888" /><rect
       x="233.69139"
       y="442.72188"
       width="328.81201"
       height="158.53436"
       id="rect4881" /><inkscape:path-effect
       effect="bspline"
       id="path-effect3827"
       is_visible="true"
       lpeversion="1"
       weight="33.333333"
       steps="2"
       helper_size="0"
       apply_no_weight="true"
       apply_with_weight="true"
       only_selected="false" /><inkscape:path-effect
       effect="bspline"
       id="path-effect3823"
       is_visible="true"
       lpeversion="1"
       weight="33.333333"
       steps="2"
       helper_size="0"
       apply_no_weight="true"
       apply_with_weight="true"
       only_selected="false" /><inkscape:path-effect
       effect="bspline"
       id="path-effect3819"
       is_visible="true"
       lpeversion="1"
       weight="33.333333"
       steps="2"
       helper_size="0"
       apply_no_weight="true"
       apply_with_weight="true"
       only_selected="false" /><inkscape:path-effect
       effect="bspline"
       id="path-effect3811"
       is_visible="true"
       lpeversion="1"
       weight="33.333333"
       steps="2"
       helper_size="0"
       apply_no_weight="true"
       apply_with_weight="true"
       only_selected="false" /><inkscape:path-effect
       effect="bspline"
       id="path-effect3807"
       is_visible="true"
       lpeversion="1"
       weight="33.333333"
       steps="2"
       helper_size="0"
       apply_no_weight="true"
       apply_with_weight="true"
       only_selected="false" /><linearGradient
       id="linearGradient2065"
       inkscape:swatch="solid"><stop
         style="stop-color:#000000;stop-opacity:1;"
         offset="0"
         id="stop2063" /></linearGradient><linearGradient
       id="linearGradient1004"
       inkscape:swatch="solid"><stop
         style="stop-color:#0f0f0f;stop-opacity:1;"
         offset="0"
         id="stop1002" /></linearGradient></defs><path
     id="path1032"
     style="fill:#000000;stroke-width:0.965;paint-order:stroke fill markers;stroke:#e5e5e5;stroke-opacity:1;stroke-dasharray:none;stroke-linejoin:round;stroke-linecap:round"
     d="M 37.991479 30.14648 C 35.189081 30.14648 32.932874 31.291573 32.932874 32.714282 L 32.932874 41.004732 C 32.932874 42.238234 34.629805 43.261771 36.907308 43.51259 C 36.308253 44.670498 35.972998 45.969461 35.972998 47.34388 L 35.972998 71.039075 C 33.983486 71.384302 32.558219 72.336938 32.558219 73.466833 L 32.558219 81.757284 C 32.558219 83.179993 34.814427 84.325085 37.616825 84.325085 L 81.96554 84.325085 C 84.767938 84.325085 87.024146 83.179993 87.024146 81.757284 L 87.024146 73.466833 C 87.024146 72.538077 86.059649 71.729739 84.612406 71.278853 L 84.612406 67.318372 L 172.01121 67.318372 L 172.01121 50.851676 L 84.612406 50.851676 L 84.612406 47.34388 C 84.612406 45.957352 84.270578 44.647694 83.66156 43.4821 C 85.818112 43.18822 87.3988 42.194834 87.3988 41.004732 L 87.3988 32.714282 C 87.3988 31.291573 85.142592 30.14648 82.340194 30.14648 L 37.991479 30.14648 z M 65.851794 102.10074 C 62.35806 102.14764 58.933079 102.70906 55.721147 104.15282 C 52.168648 105.84918 49.498086 107.77271 46.988346 110.84595 C 44.520278 113.80507 42.094992 116.85248 40.774772 120.52546 C 39.462389 124.2779 38.464118 128.16187 38.616764 132.17333 C 38.902062 136.34578 39.539694 140.50135 41.269832 144.34881 C 42.670088 147.43427 44.250888 150.44691 46.472616 153.03355 C 47.31059 153.95965 48.179059 154.85426 49.119482 155.67215 C 48.455399 156.69982 47.778154 157.71949 47.163013 158.77687 C 43.575308 164.94383 41.202259 171.73503 39.250834 178.56791 C 38.346717 182.32014 37.997847 183.38768 37.442159 187.21803 C 36.590482 193.08864 36.51685 199.04128 36.640141 204.9601 C 36.926272 213.32116 37.360391 221.7282 39.270471 229.90483 C 40.094952 233.25866 40.948652 236.61308 42.175203 239.84738 C 43.488268 243.13003 48.13036 241.27278 46.817297 237.99012 C 45.684022 234.96999 44.893353 231.84096 44.126506 228.71265 C 42.308259 220.86979 41.909061 212.80685 41.637252 204.79008 C 41.521785 199.11579 41.584584 193.40749 42.410848 187.78027 C 42.928068 184.25776 43.270567 183.19733 44.110486 179.74407 C 45.962435 173.32005 48.182773 166.92288 51.575146 161.12867 C 52.256133 159.96554 53.024499 158.856 53.749174 157.71957 C 58.319951 150.98777 64.199427 145.34422 70.221554 139.93564 C 74.674508 136.06392 79.491483 132.57525 84.722994 129.82567 C 85.707015 129.30848 86.719419 128.84728 87.717643 128.35806 C 93.400417 125.72685 99.449281 124.07242 105.53361 122.68037 C 109.01229 121.94314 112.56058 121.52208 116.12004 121.59568 C 118.32631 121.64128 118.93318 121.75786 121.1156 122.00031 C 125.99795 122.62327 130.09229 124.2462 134.33082 126.66772 C 138.52401 129.39078 141.90021 133.09111 145.0666 136.91102 C 148.40483 141.03386 151.02822 145.64646 153.49089 150.32519 C 156.00656 155.00908 157.92168 159.96368 159.70343 164.96151 C 161.34098 169.58372 162.7541 174.2777 163.79517 179.06969 C 164.73653 183.71693 165.32055 188.42316 165.74079 193.14273 C 166.0911 197.4405 166.23363 201.74902 166.31905 206.05874 C 166.40275 209.81188 166.3662 213.56608 166.2715 217.31852 C 166.13529 220.8679 165.96379 224.41574 165.80952 227.96438 C 165.72782 230.12121 165.60886 232.27643 165.49429 234.43169 C 165.30663 237.96223 170.29961 238.22785 170.48727 234.6973 C 170.60268 232.52596 170.72265 230.35485 170.80508 228.18194 C 170.96065 224.60287 171.13356 221.02448 171.26965 217.44461 C 171.36575 213.61718 171.40368 209.78766 171.31823 205.95952 C 171.23033 201.53454 171.08195 197.1109 170.72085 192.69832 C 170.27993 187.77028 169.66869 182.85626 168.68014 178.00464 C 167.58606 173.00609 166.1272 168.10374 164.4127 163.28202 C 164.13179 162.49479 163.83836 161.71192 163.54919 160.92764 C 163.68502 160.89363 163.82258 160.85318 163.96415 160.79794 C 165.51323 160.13702 166.95192 159.27416 168.35096 158.34331 C 171.14009 156.38179 173.4124 153.85004 175.52779 151.20317 C 178.15017 147.89871 179.7891 144.02692 181.09076 140.05243 C 182.22429 136.20144 182.21097 132.19131 181.86073 128.23145 C 181.48338 124.3467 179.88088 120.79682 178.21548 117.32204 C 176.53772 113.72639 174.42154 111.20561 171.39471 108.68846 C 168.63593 106.49981 165.45412 105.114 162.079 104.21018 C 158.5224 103.39099 155.19425 103.9398 151.77575 105.0184 C 148.09981 106.31728 144.92865 108.58938 141.89521 110.97979 C 139.18143 113.14375 136.68132 115.55179 134.24194 118.01554 C 133.89838 118.36184 133.55454 118.70845 133.21099 119.05475 C 132.88312 119.38525 132.66247 119.7331 132.52783 120.08259 C 129.07459 118.55007 125.40388 117.54618 121.65872 117.03007 C 119.21536 116.76688 118.53135 116.63785 116.06062 116.59598 C 112.14526 116.52968 108.2433 116.99208 104.4174 117.80676 C 99.323825 118.97532 94.259271 120.33288 89.388859 122.22872 C 87.646392 119.27317 85.830574 116.35699 83.753544 113.62149 C 81.400376 110.55909 78.885004 107.57748 75.640861 105.41527 C 72.592144 103.52985 69.500644 102.18047 65.851794 102.10074 z M 65.895719 107.10044 C 68.513358 107.18574 70.82114 108.27792 72.989343 109.65429 C 75.706413 111.51715 77.802246 114.07207 79.785828 116.6642 C 81.612859 119.07455 83.222202 121.63492 84.764335 124.23324 C 83.9287 124.63643 83.090786 125.03518 82.270431 125.46831 C 76.720732 128.39844 71.605907 132.10188 66.879639 136.21649 C 61.578706 140.98193 56.398186 145.93305 52.037134 151.57731 C 51.387197 150.98255 50.778058 150.34618 50.187634 149.68699 C 48.32425 147.4753 47.005733 144.90877 45.825627 142.28847 C 44.354582 138.98657 43.834112 135.41813 43.605607 131.84208 C 43.519237 128.51441 44.388386 125.29308 45.490763 122.18531 C 46.63128 119.09024 48.738774 116.54807 50.826355 114.0504 C 52.757635 111.63165 55.066916 109.96412 57.851766 108.67605 C 60.407921 107.55451 63.123801 107.10812 65.895719 107.10044 z M 158.42547 108.80628 C 159.21424 108.79858 160.00879 108.87093 160.80827 109.04606 C 163.49334 109.73452 166.01589 110.83455 168.21816 112.54972 C 170.60119 114.48252 172.42991 116.66611 173.70774 119.48521 C 175.11769 122.41922 176.53604 125.40167 176.88119 128.68207 C 177.18624 131.96544 177.23733 135.3013 176.33601 138.50576 C 175.23593 141.91605 173.85462 145.24727 171.61743 148.08657 C 169.82973 150.33662 167.92145 152.50088 165.57181 154.18697 C 164.47664 154.92365 163.35541 155.60318 162.14669 156.14034 C 162.01288 156.19255 161.89077 156.25177 161.77359 156.31449 C 160.62106 153.48274 159.36396 150.69558 157.91439 147.9951 C 155.28718 143.01088 152.4787 138.10357 148.91339 133.7169 C 145.38826 129.47757 141.61024 125.39695 136.93014 122.40545 C 137.21858 122.11471 137.50679 121.8239 137.79521 121.53315 C 140.09058 119.21337 142.44096 116.9431 144.99373 114.9041 C 147.55336 112.87876 150.21287 110.91704 153.30434 109.77883 C 154.98177 109.22778 156.69019 108.82321 158.42547 108.80628 z M 85.670223 152.91521 C 85.398539 152.91755 85.124753 152.93398 84.855286 152.92193 C 82.684395 153.64163 81.525888 154.81623 80.743392 156.98163 C 80.209569 158.8669 79.994651 160.78858 80.085551 162.74924 C 80.085551 164.02221 80.733888 164.83723 81.563497 165.19353 C 82.50288 166.99798 83.768737 167.94698 85.906384 168.00008 C 88.601983 167.76149 89.76857 166.55844 90.5738 164.0489 C 90.64334 163.65741 90.741601 163.26981 90.782572 162.8743 C 90.96071 161.15465 90.53179 159.42261 90.142818 157.76453 C 89.536619 155.88906 88.617481 153.56726 86.472241 152.99428 C 86.211639 152.92468 85.941907 152.91288 85.670223 152.91521 z M 131.26951 153.42164 C 130.99782 153.42398 130.72403 153.44093 130.45457 153.42888 C 128.28368 154.14858 127.12516 155.32318 126.34268 157.48858 C 125.80885 159.37385 125.59393 161.29553 125.68483 163.25618 C 125.68483 164.52916 126.33317 165.34366 127.16278 165.69996 C 128.10216 167.50441 129.36803 168.45341 131.50567 168.50651 C 134.20127 168.26792 135.36785 167.06487 136.17308 164.55533 C 136.24258 164.16384 136.34089 163.77675 136.38186 163.38124 C 136.56 161.66159 136.13107 159.92955 135.7421 158.27148 C 135.1359 156.39601 134.21676 154.0742 132.07153 153.50122 C 131.81092 153.43162 131.54119 153.41931 131.26951 153.42164 z M 85.568937 163.16885 C 85.580992 163.16905 85.593056 163.16986 85.605111 163.16989 C 85.54956 163.27742 85.480994 163.39744 85.403573 163.45307 C 85.339493 163.49917 85.426134 163.28488 85.483154 163.23035 C 85.508406 163.20619 85.53813 163.18676 85.568937 163.16885 z M 131.16874 163.6758 C 131.18079 163.67599 131.19286 163.67681 131.20491 163.67683 C 131.14936 163.78438 131.08029 163.90437 131.00286 163.96002 C 130.93876 164.00612 131.02534 163.79131 131.08244 163.73678 C 131.10779 163.71252 131.13779 163.69377 131.16874 163.6758 z M 78.921281 191.00385 C 77.09337 191.07992 75.566408 193.28242 77.193221 195.23459 C 79.324157 197.27914 82.179353 198.48221 84.84495 199.67153 C 88.053946 201.04449 91.453606 201.77704 94.879997 202.33907 C 94.946412 202.55379 95.041023 202.77305 95.168351 202.99588 C 95.669479 203.86594 96.161104 204.73998 96.69849 205.589 C 97.725197 207.19377 98.953279 208.65732 100.25125 210.04713 C 102.06475 211.74766 104.206 213.0358 106.38059 214.21535 C 108.22256 215.18713 110.14067 215.99246 112.14148 216.56766 C 113.81253 217.02934 115.51733 217.18692 117.23781 217.01259 C 118.9924 216.72341 120.36969 215.79522 121.50783 214.47218 C 122.39274 213.29634 122.82345 211.92275 123.05347 210.48948 C 123.22931 209.13173 123.05162 207.78165 122.73824 206.46027 C 122.48644 205.41874 122.07629 204.42765 121.64529 203.45011 C 120.21202 200.21814 115.64123 202.24489 117.07451 205.47686 C 117.39125 206.18554 117.69818 206.90311 117.88428 207.65916 C 118.06682 208.34164 118.16597 209.04765 118.10804 209.75516 C 118.04244 210.30149 117.90664 210.82579 117.6352 211.30907 C 117.3994 211.6823 117.06712 211.91407 116.64404 212.04804 C 115.59516 212.2275 114.52802 211.98502 113.50522 211.75762 C 111.85194 211.29756 110.28181 210.60506 108.75874 209.81717 C 107.05073 208.89724 105.36883 207.89791 103.8965 206.6246 C 102.8639 205.53227 101.89468 204.37317 101.06101 203.12042 C 103.77308 203.31193 106.49599 203.29698 109.21401 203.13334 C 112.57845 202.83068 115.9014 202.19842 119.19479 201.46316 C 121.8761 200.85348 124.50794 200.05097 127.11265 199.17492 C 128.96801 198.57013 130.68695 197.65281 132.3945 196.72494 C 135.50086 195.0366 133.11341 190.64359 130.00705 192.33193 C 128.55325 193.12225 127.09844 193.92192 125.5174 194.43619 C 123.07845 195.2581 120.61411 196.01101 118.10339 196.58387 C 115.06874 197.26441 112.00602 197.84853 108.90705 198.14294 C 105.26668 198.37162 101.61666 198.29183 98.001253 197.76519 C 94.222338 197.21001 90.419576 196.59517 86.875834 195.10282 C 84.87506 194.21672 82.825507 193.3001 81.03433 192.03376 C 80.397751 191.26986 79.63655 190.97408 78.921281 191.00385 z " /></svg>
